<svg xmlns="http://www.w3.org/2000/svg" width="18" height="19" viewBox="0 0 18 19">
    <path fill="#176DB7" fill-rule="evenodd" d="M16.697 9.587c.118.118.178.274.178.43 0 .157-.06.312-.178.431l-2.74 2.739c-.237.237-.622.237-.86 0-.114-.114-.177-.267-.177-.429 0-.162.063-.315.177-.429l1.704-1.703H4.644c-.336 0-.608-.273-.608-.608 0-.336.272-.609.608-.609h10.157l-1.704-1.703c-.237-.237-.237-.622 0-.858.238-.237.623-.237.86-.002l2.74 2.74zm-9.954 7.68c0-.336-.272-.608-.608-.608H2.7c-.199 0-.362-.162-.362-.363V3.702c0-.199.162-.362.362-.362h3.437c.335 0 .608-.273.608-.609 0-.335-.274-.606-.608-.606H2.218c-.603 0-1.091.49-1.091 1.092v13.566c0 .603.49 1.092 1.091 1.092h3.919c.334 0 .606-.272.606-.608z"/>
</svg>
