<svg xmlns="http://www.w3.org/2000/svg" width="8" height="14" viewBox="0 0 8 14">
    <g fill="none" fill-rule="evenodd">
        <path d="M0 0H18V18H0z" transform="translate(-5 -2)"/>
        <path fill="#9E9E9E" d="M10.5 9c0-.621.504-1.125 1.125-1.125S12.75 8.379 12.75 9s-.504 1.125-1.125 1.125S10.5 9.621 10.5 9zm0 5.625c0-.621.504-1.125 1.125-1.125s1.125.504 1.125 1.125-.504 1.125-1.125 1.125-1.125-.504-1.125-1.125zm0-11.25c0-.621.504-1.125 1.125-1.125s1.125.504 1.125 1.125S12.246 4.5 11.625 4.5 10.5 3.996 10.5 3.375zM5.25 9c0-.621.504-1.125 1.125-1.125S7.5 8.379 7.5 9s-.504 1.125-1.125 1.125S5.25 9.621 5.25 9zm0-5.625c0-.621.504-1.125 1.125-1.125S7.5 2.754 7.5 3.375 6.996 4.5 6.375 4.5 5.25 3.996 5.25 3.375zm0 11.25c0-.621.504-1.125 1.125-1.125s1.125.504 1.125 1.125-.504 1.125-1.125 1.125-1.125-.504-1.125-1.125z" transform="translate(-5 -2)"/>
    </g>
</svg>
