<svg xmlns="http://www.w3.org/2000/svg" width="16" height="16" viewBox="0 0 16 16">
    <defs>
        <filter id="mg7ue8lz0a">
            <feColorMatrix in="SourceGraphic" values="0 0 0 0 0.090196 0 0 0 0 0.427451 0 0 0 0 0.717647 0 0 0 1.000000 0"/>
        </filter>
    </defs>
    <g fill="none" fill-rule="evenodd">
        <g>
            <g filter="url(#mg7ue8lz0a)" transform="translate(-360 -829) translate(360 829)">
                <path d="M0 0H16V16H0z"/>
                <path fill="#000" fill-rule="nonzero" d="M12.144 3.638v-3c0-.346-.28-.626-.625-.626-.346 0-.625.28-.625.625v3c0 .929-.361 1.802-1.019 2.46-.656.656-1.53 1.019-2.46 1.019H2.113L3.87 5.36c.243-.245.243-.64 0-.884-.122-.122-.282-.183-.442-.183-.161 0-.32.06-.443.183L.195 7.266c-.117.117-.182.276-.182.442 0 .165.065.325.182.442l2.87 2.872c.246.244.641.245.885 0s.244-.64 0-.885L2.178 8.366h5.238c1.262 0 2.45-.491 3.343-1.385.894-.893 1.386-2.081 1.385-3.343z" transform="translate(1.922 2.39)"/>
            </g>
        </g>
    </g>
</svg>
