<svg xmlns="http://www.w3.org/2000/svg" width="18" height="18" viewBox="0 0 18 18">
    <path fill="#176DB7" fill-rule="evenodd" d="M9 0C4.029 0 0 4.029 0 9s4.029 9 9 9 9-4.029 9-9-4.029-9-9-9zm-.053 3.243c.35 0 .633.283.633.633 0 .35-.283.633-.633.633-.35 0-.633-.283-.633-.633 0-.35.283-.633.633-.633zm2.764 9.793c0 .35-.283.633-.633.633H6.817c-.35 0-.633-.283-.633-.633 0-.35.283-.633.633-.633h1.497V6.882H7.26c-.35 0-.633-.283-.633-.633 0-.35.283-.633.633-.633h1.687c.35 0 .633.283.633.633v6.154h1.498c.35 0 .633.283.633.633z"/>
</svg>
