<svg xmlns="http://www.w3.org/2000/svg" width="18" height="18" viewBox="0 0 18 18">
    <g fill="none" fill-rule="evenodd">
        <path d="M0 0H18V18H0z"/>
        <path fill="#9E9E9E" d="M9 0C4.029 0 0 4.029 0 9s4.029 9 9 9 9-4.029 9-9-4.029-9-9-9zm5.469 14.469c-.71.71-1.539 1.269-2.46 1.657-.952.404-1.965.608-3.009.608-1.044 0-2.057-.204-3.01-.606-.92-.39-1.747-.948-2.459-1.658-.71-.71-1.269-1.538-1.657-2.459-.404-.954-.608-1.967-.608-3.011s.204-2.057.606-3.01c.39-.92.948-1.747 1.658-2.459.71-.71 1.538-1.269 2.459-1.657.954-.404 1.967-.608 3.011-.608s2.057.204 3.01.606c.92.39 1.747.948 2.459 1.658.71.71 1.269 1.538 1.657 2.459.404.954.608 1.967.608 3.011s-.204 2.057-.606 3.01c-.39.92-.948 1.748-1.66 2.459zm-3.391-2.066H9.58V6.25c0-.35-.283-.633-.633-.633H7.26c-.35 0-.633.283-.633.633 0 .35.283.633.633.633h1.054v5.521H6.817c-.35 0-.633.283-.633.633 0 .35.283.633.633.633h4.261c.35 0 .633-.283.633-.633 0-.35-.283-.633-.633-.633zM8.314 3.876c0 .35.284.633.633.633.35 0 .633-.284.633-.633 0-.35-.283-.633-.633-.633-.35 0-.633.283-.633.633z"/>
    </g>
</svg>
