<svg width="18" height="20" viewBox="0 0 18 20" fill="none" xmlns="http://www.w3.org/2000/svg">
<path fill-rule="evenodd" clip-rule="evenodd" d="M16.0475 0.264069C16.835 0.264069 17.5381 0.732819 17.8381 1.45938C18.1381 2.18829 17.9741 3.01563 17.4163 3.57344L11.592 9.70235V18.918C11.592 19.2625 11.3834 19.5719 11.0647 19.7008C10.9616 19.7406 10.8538 19.7617 10.7483 19.7617C10.5233 19.7617 10.303 19.6727 10.1413 19.5039L7.20688 16.4688C7.05454 16.3117 6.97016 16.1008 6.97016 15.8828V9.74219L0.571723 3.5711C0.0162545 3.01329 -0.147808 2.18594 0.154536 1.45938C0.456879 0.732819 1.16 0.264069 1.94516 0.264069H16.0475ZM10.153 8.75548L16.2233 2.37813C16.3217 2.28204 16.3077 2.17657 16.2795 2.10626C16.2491 2.03594 16.1858 1.95157 16.0475 1.95157H1.94516C1.80688 1.95157 1.74125 2.03594 1.71313 2.10626C1.685 2.17657 1.6686 2.27969 1.76704 2.37813L8.41391 8.79532C8.57094 8.95235 8.66 9.16797 8.66 9.39063V15.5406L9.90688 16.9V9.35313C9.90688 9.12813 9.9936 8.91485 10.153 8.75548Z" fill="#176DB7"/>
</svg>
