<svg xmlns="http://www.w3.org/2000/svg" width="24" height="24" viewBox="0 0 24 24">
    <g fill="none" fill-rule="evenodd">
        <g fill="#176DB7">
            <g>
                <path d="M20.66 1.333c1.108 0 2.007.89 2.007 2.007v17.32c0 1.108-.89 2.007-2.007 2.007H3.34c-1.108 0-2.007-.89-2.007-2.007V3.34c0-1.108.89-2.007 2.007-2.007h17.32zm-3.027 6.228c-.256-.23-.651-.21-.882.047l-7.005 7.778-2.487-2.764-.074-.07c-.235-.188-.578-.184-.809.024-.256.23-.277.626-.046.883l2.944 3.27.077.072c.162.129.376.166.57.108.113-.03.22-.092.305-.186l7.453-8.279c.231-.256.21-.652-.046-.883z" transform="translate(-296 -718) translate(296 718)"/>
            </g>
        </g>
    </g>
</svg>
