<svg xmlns="http://www.w3.org/2000/svg" width="24" height="24" viewBox="0 0 24 24">
    <defs>
        <filter id="gxjdbr8wpa">
            <feColorMatrix in="SourceGraphic" values="0 0 0 0 0.090196 0 0 0 0 0.427451 0 0 0 0 0.717647 0 0 0 1.000000 0"/>
        </filter>
    </defs>
    <g fill="none" fill-rule="evenodd">
        <g>
            <g transform="translate(-624 -288) translate(624 288)">
                <path d="M0 0H24V24H0z"/>
                <g fill="#176db7" fill-rule="nonzero">
                    <path d="M16.313 7.688v14.625H1.688V7.688h14.624zm0-1.688H1.688C.754 6 0 6.755 0 7.688v14.625C0 23.244.755 24 1.688 24h14.624c.933 0 1.688-.755 1.688-1.688V7.688C18 6.755 17.245 6 16.312 6zm6-6H8.43c-.466 0-.843.377-.843.844 0 .466.377.844.843.844h13.883v13.968c0 .467.377.844.843.844.467 0 .844-.377.844-.844V1.687C24 .755 23.245 0 22.312 0zm-3 3H3.842C3.378 3 3 3.377 3 3.844c0 .466.377.844.844.844h15.469v15.468c0 .467.377.844.843.844.467 0 .844-.377.844-.844V4.688C21 3.755 20.245 3 19.312 3z"/>
                </g>
            </g>
        </g>
    </g>
</svg>
