<svg xmlns="http://www.w3.org/2000/svg" width="24" height="24" viewBox="0 0 24 24">
    <g fill="none" fill-rule="evenodd">
        <g fill="#176DB7">
            <g>
                <g>
                    <g>
                        <path d="M0 1v11.714c0 .553.448 1 1 1h11.714c.553 0 1-.447 1-1V1c0-.552-.447-1-1-1H1C.448 0 0 .448 0 1zm1.714.714H12V12H1.714V1.714zM6 2.571v1.715H2.571V6h1.762c.135 1.188.557 2.152 1.145 2.905-.882.377-1.945.524-2.907.524v1.714c1.336 0 2.922-.204 4.286-1.02 1.364.817 2.95 1.02 4.286 1.02V9.429c-.962 0-2.024-.147-2.906-.524.587-.753 1.01-1.717 1.145-2.905h1.76V4.286H7.715V2.57H6zM6.059 6h1.597c-.113.857-.397 1.47-.799 1.93-.401-.46-.686-1.073-.798-1.93zm9.37 5.143c0 .473.383.857.857.857h6v10.286H12v-6c0-.474-.384-.857-.857-.857-.474 0-.857.383-.857.857V23c0 .552.447 1 1 1H23c.552 0 1-.448 1-1V11.286c0-.553-.448-1-1-1h-6.714c-.474 0-.857.383-.857.857zm.857 1.714l-3.429 8.572h1.714l.687-1.715h3.77l.686 1.715h1.715L18 12.857h-1.714zM17.143 15l1.2 3h-2.4l1.2-3z" transform="translate(-890 -202) translate(296 202) translate(589) translate(5)"/>
                    </g>
                </g>
            </g>
        </g>
    </g>
</svg>
