<svg xmlns="http://www.w3.org/2000/svg" width="18" height="9" viewBox="0 0 18 9">
  <g fill="none" fill-rule="evenodd" opacity=".65">
    <path d="M0 0H24V24H0z" transform="translate(-3 -8)"/>
    <g>
      <path fill="#9E9E9E"
        d="M4.15.525v6.692s-.002.002-.002 0L1.61 4.694c-.205-.204-.545-.21-.759-.014-.213.196-.22.522-.014.726l3.454 3.438c.101.1.241.157.386.157.147 0 .286-.057.387-.157l3.472-3.457c.1-.099.15-.227.15-.355 0-.136-.054-.27-.164-.37-.214-.196-.554-.19-.759.014L5.227 7.199c-.001.001-.002 0-.002-.001V.513c0-.273-.223-.496-.504-.512-.312-.018-.57.226-.57.524z"
        transform="translate(-3 -8) translate(2.313 7.953)"/>
      <path fill="#030303"
        d="M14.15 8.475V1.783s-.002-.002-.002 0L11.61 4.306c-.205.204-.545.21-.759.014-.213-.196-.22-.522-.014-.726L14.292.157c.101-.1.241-.157.386-.157.147 0 .286.057.387.157l3.472 3.457c.1.099.15.227.15.355 0 .136-.054.27-.164.37-.214.196-.554.19-.759-.014l-2.537-2.524c-.001-.001-.002 0-.002.001v6.685c0 .273-.223.496-.504.512-.312.018-.57-.226-.57-.524z"
        transform="translate(-3 -8) translate(2.313 7.953)"/>
    </g>
  </g>
</svg>
