<svg width="40" height="40" viewBox="0 0 40 40" fill="none" xmlns="http://www.w3.org/2000/svg">
<path d="M36.7449 30.1746C38.5922 27.1026 39.5659 23.5846 39.5608 19.9999C39.5608 9.07549 30.7043 0.219727 19.7802 0.219727C8.85578 0.219727 1.97729e-05 9.07584 1.97729e-05 19.9999C-0.00506034 23.5847 0.968846 27.1028 2.81665 30.1746L2.74465 30.2323L2.83063 30.199C6.29276 35.9397 12.5877 39.7801 19.7802 39.7801C26.9732 39.7801 33.2673 35.9397 36.7291 30.199L36.8151 30.2323L36.7449 30.1746ZM37.1307 19.9999C37.1341 23.0291 36.3399 26.0058 34.8281 28.6307L22.5915 18.7752L20.0818 2.65845C29.524 2.81964 37.1307 10.5191 37.1307 19.9999ZM2.43193 19.9999C2.43193 10.5194 10.0379 2.82 19.48 2.65845L16.9704 18.7752L4.73382 28.6307C3.22247 26.0056 2.42859 23.029 2.43193 19.9999ZM19.7809 37.3489C13.6247 37.3489 8.22103 34.1393 5.14182 29.3053L19.7809 23.6419L34.4201 29.3056C31.3405 34.1393 25.9379 37.3489 19.7809 37.3489Z" fill="white"/>
</svg>
