<svg width="256" height="60" viewBox="0 0 256 60" fill="none" xmlns="http://www.w3.org/2000/svg">
<path fill-rule="evenodd" clip-rule="evenodd" d="M104.147 34.364C104.147 36.8024 104.793 38.0812 106.016 38.0812C107.239 38.0812 107.867 36.8535 107.867 34.4836C107.867 31.9766 107.222 30.6808 105.965 30.6808C104.742 30.6808 104.147 31.8916 104.147 34.364ZM109.209 26.7874V36.6319C109.209 37.672 109.311 37.7572 110.449 37.7915V38.0813L110.194 38.1155C109.192 38.2347 108.903 38.3029 108.207 38.5248C108.048 37.9188 108.038 37.8198 107.982 37.28L107.969 37.1606C107.494 38.1155 106.831 38.559 105.863 38.559C104.011 38.559 102.721 36.8365 102.721 34.3811C102.721 31.9256 103.994 30.2033 105.812 30.2033C106.729 30.2033 107.222 30.5104 107.85 31.5334V28.5493C107.85 27.6627 107.714 27.5433 106.644 27.5433V27.2535C107.595 27.151 108.36 27.0146 109.209 26.7874ZM62.3418 28.0037L62.0021 36.8536V37.007C62.0021 37.7573 62.223 37.9108 63.4119 37.996V38.4054C62.5457 38.3372 62.2059 38.3201 61.7303 38.3201C61.2548 38.3201 60.9151 38.3372 60.0317 38.4054V37.996C61.2208 37.9108 61.3906 37.7744 61.4245 36.8536L61.7813 28.4811V28.379C61.7813 27.5943 61.5435 27.4239 60.3715 27.3557V26.9294C61.0339 26.9805 61.2886 26.9978 61.7643 26.9978C62.3928 26.9978 62.7326 26.9805 63.3779 26.9123L66.5375 35.5406L69.7478 26.9123C70.5123 26.9805 70.8689 26.9978 71.3785 26.9978C71.8031 26.9978 72.0749 26.9805 72.7203 26.9294V27.3557C71.5653 27.4239 71.3105 27.5943 71.3105 28.3617V28.4811L71.4974 36.8536C71.5144 37.7744 71.6672 37.9108 72.8903 37.996V38.4054C71.8202 38.303 71.4125 38.2688 70.767 38.2688C70.1215 38.2688 69.7138 38.303 68.6437 38.4054V37.996C69.7988 37.9278 70.0536 37.7403 70.0536 36.9389V36.8536L69.9006 28.0208L67.098 35.6258L66.8941 36.1886L66.6563 36.8195L66.4356 37.4675L66.2486 38.0302H65.9938L65.8071 37.4846L65.5692 36.8195L65.3314 36.1545L65.1275 35.5576L62.3418 28.0037ZM125.461 33.352H129.257V34.2335H125.461V33.352ZM76.9996 30.5445C75.9125 30.5445 75.267 31.5507 75.0971 33.5115H78.7662C78.6642 31.4994 78.1037 30.5445 76.9996 30.5445ZM75.0631 34.1254C75.0802 36.7854 75.7596 37.9791 77.3054 37.9791C78.5114 37.9791 79.2587 37.1947 79.4626 35.7453H80.1421C79.9212 37.5016 78.8341 38.542 77.1695 38.542C74.9781 38.542 73.7042 37.0072 73.7042 34.3812C73.7042 31.7553 74.9781 30.1011 77.0165 30.1011C79.021 30.1011 80.0911 31.4994 80.1251 34.1254H75.0631ZM81.1364 30.7321V30.4252C82.1045 30.34 82.6821 30.2377 83.3786 30.0329C83.4635 30.6639 83.4975 30.9366 83.5314 31.4482V31.6358C83.905 30.6639 84.6355 30.1011 85.5187 30.1011C86.368 30.1011 86.9966 30.6639 86.9966 31.4823C86.9966 31.9769 86.7079 32.301 86.2832 32.301C85.8924 32.301 85.5869 32.0621 85.5869 31.7212C85.5869 31.6873 85.6036 31.6201 85.6203 31.5523L85.6207 31.5507L85.6547 31.3801V31.2266C85.6547 30.9879 85.4507 30.8173 85.145 30.8173C84.2618 30.8173 83.7012 31.8917 83.7012 33.5797V37.1436C83.7012 37.8768 83.8712 38.0132 84.9072 38.0643V38.4056C83.9731 38.3201 83.6163 38.303 83.0218 38.303C82.4103 38.303 82.0536 38.3201 81.1194 38.4056V38.0643C82.1556 38.0132 82.3424 37.8768 82.3424 37.1436V31.8405V31.5676C82.3254 30.8344 82.2404 30.7491 81.3573 30.7321H81.1364ZM93.4944 32.7613V29.9479H93.2056L92.7471 30.8172C92.2034 30.2886 91.7447 30.1011 91.0143 30.1011C89.0099 30.1011 87.6511 31.8405 87.6511 34.3812C87.6511 36.8708 88.993 38.542 90.9634 38.542C92.4921 38.542 93.4603 37.5529 93.6811 35.7283H92.9848C92.7808 37.2288 92.1525 37.9791 91.0991 37.9791C89.7914 37.9791 89.1287 36.7686 89.1287 34.3812C89.1287 31.9428 89.8764 30.5615 91.1501 30.5615C92.1866 30.5615 92.8148 31.2778 93.1206 32.7613H93.4944ZM96.2838 33.5115C96.4536 31.5507 97.0991 30.5445 98.1863 30.5445C99.2904 30.5445 99.8509 31.4994 99.9529 33.5115H96.2838ZM98.492 37.9791C96.9464 37.9791 96.2667 36.7854 96.2498 34.1254H101.312C101.278 31.4994 100.208 30.1011 98.2033 30.1011C96.1648 30.1011 94.891 31.7553 94.891 34.3812C94.891 37.0072 96.1648 38.542 98.3563 38.542C100.021 38.542 101.108 37.5016 101.329 35.7453H100.649C100.445 37.1947 99.6982 37.9791 98.492 37.9791ZM112.486 33.5115C112.655 31.5507 113.301 30.5445 114.388 30.5445C115.492 30.5445 116.052 31.4994 116.154 33.5115H112.486ZM114.694 37.9791C113.148 37.9791 112.468 36.7854 112.451 34.1254H117.513C117.479 31.4994 116.409 30.1011 114.405 30.1011C112.366 30.1011 111.092 31.7553 111.092 34.3812C111.092 37.0072 112.366 38.542 114.558 38.542C116.222 38.542 117.31 37.5016 117.53 35.7453H116.851C116.647 37.1947 115.9 37.9791 114.694 37.9791ZM118.955 35.7112V38.5591H119.261L119.668 37.7916C120.314 38.303 120.925 38.5078 121.707 38.5078C123.304 38.5078 124.442 37.4846 124.442 36.0522C124.442 35.0461 123.983 34.5004 122.692 33.9378L121.979 33.6308C120.433 32.9488 120.178 32.7272 120.178 32.0451C120.178 31.2437 120.874 30.6298 121.775 30.6298C122.845 30.6298 123.405 31.2778 123.558 32.6417H123.949V29.9988H123.643L123.355 30.698C122.777 30.3059 122.284 30.1523 121.622 30.1523C120.127 30.1523 119.074 31.073 119.074 32.4202C119.074 33.409 119.465 33.8865 120.705 34.4664L121.486 34.8243L122.132 35.1143C122.964 35.4894 123.287 35.8816 123.287 36.4613C123.287 37.331 122.539 37.9961 121.537 37.9961C120.348 37.9961 119.635 37.2459 119.329 35.6942L118.955 35.7112ZM133.887 32.6761C134.787 32.6761 135.297 32.8293 135.687 33.2216C136.078 33.6139 136.299 34.3471 136.299 35.1655C136.299 36.8707 135.45 37.8258 133.938 37.8258H133.326C132.426 37.8258 132.273 37.6891 132.273 36.9389V32.6761H133.887ZM132.273 27.5094H133.717C135.144 27.5094 135.772 28.2085 135.772 29.7943C135.772 30.5784 135.586 31.1413 135.212 31.5847C134.838 32.0109 134.38 32.1474 133.428 32.1474H132.273V27.5094ZM137.284 29.7602C137.284 28.8733 136.91 28.089 136.265 27.5944C135.687 27.1682 135.025 26.9805 133.921 26.9805H129.454V27.4071C130.676 27.4751 130.846 27.6117 130.846 28.5324V36.8026C130.846 37.7233 130.71 37.8426 129.454 37.9451V38.3542H133.751C135.008 38.3542 135.687 38.2008 136.401 37.7573C137.25 37.2117 137.811 36.1716 137.811 35.0974C137.811 34.1765 137.42 33.341 136.757 32.8293C136.401 32.5566 136.027 32.4031 135.416 32.2837C136.639 31.8234 137.284 30.9538 137.284 29.7602ZM142.486 30.5445C141.399 30.5445 140.753 31.5507 140.583 33.5115H144.252C144.151 31.4994 143.59 30.5445 142.486 30.5445ZM140.549 34.1254C140.567 36.7854 141.246 37.9791 142.792 37.9791C143.998 37.9791 144.745 37.1947 144.949 35.7453H145.628C145.408 37.5016 144.32 38.542 142.656 38.542C140.465 38.542 139.191 37.0072 139.191 34.3812C139.191 31.7553 140.465 30.1011 142.503 30.1011C144.507 30.1011 145.577 31.4994 145.611 34.1254H140.549ZM146.51 30.8003V30.5105C147.496 30.374 148.073 30.2377 148.752 29.9989C148.838 30.391 148.888 30.8344 148.923 31.4824C149.534 30.5616 150.23 30.1524 151.216 30.1524C152.235 30.1524 153.118 30.6809 153.458 31.5164C153.628 31.9257 153.713 32.4031 153.713 33.0511V37.1437C153.713 37.8768 153.883 38.0133 154.919 38.0644V38.4056C154.018 38.3203 153.679 38.3032 153.067 38.3032C152.439 38.3032 152.099 38.3203 151.216 38.4056V38.0644C152.133 38.0305 152.354 37.8598 152.354 37.1778V33C152.354 31.5164 151.912 30.9198 150.825 30.9198C149.67 30.9198 149.059 31.653 149.059 33.0511V37.1778C149.059 37.8598 149.279 38.0305 150.162 38.0644V38.4056C149.279 38.3203 148.94 38.3032 148.328 38.3032C147.734 38.3032 147.377 38.3203 146.494 38.4056V38.0644C147.53 38.0133 147.699 37.8768 147.699 37.1437V31.8746V31.619C147.683 30.9198 147.581 30.8173 146.731 30.8173C146.709 30.8173 146.68 30.8141 146.648 30.8105C146.606 30.8057 146.558 30.8003 146.51 30.8003ZM160.183 30.7491L155.579 38.3542H161.422L161.864 35.8988H161.507C160.998 37.4503 160.522 37.911 159.367 37.911H157.38L162 30.3058H156.157L155.766 32.5224H156.106C156.717 30.9878 156.989 30.7491 158.093 30.7491H160.183Z" fill="white"/>
<path d="M48.7449 39.1746C50.5922 36.1026 51.5659 32.5846 51.5608 28.9999C51.5608 18.0755 42.7043 9.21973 31.7802 9.21973C20.8558 9.21973 12 18.0758 12 28.9999C11.9949 32.5847 12.9688 36.1028 14.8167 39.1746L14.7447 39.2323L14.8306 39.199C18.2928 44.9397 24.5877 48.7801 31.7802 48.7801C38.9732 48.7801 45.2673 44.9397 48.7291 39.199L48.8151 39.2323L48.7449 39.1746ZM49.1307 28.9999C49.1341 32.0291 48.3399 35.0058 46.8281 37.6307L34.5915 27.7752L32.0818 11.6584C41.524 11.8196 49.1307 19.5191 49.1307 28.9999ZM14.4319 28.9999C14.4319 19.5194 22.0379 11.82 31.48 11.6584L28.9704 27.7752L16.7338 37.6307C15.2225 35.0056 14.4286 32.029 14.4319 28.9999ZM31.7809 46.3489C25.6247 46.3489 20.221 43.1393 17.1418 38.3053L31.7809 32.6419L46.4201 38.3056C43.3405 43.1393 37.9379 46.3489 31.7809 46.3489Z" fill="white"/>
</svg>
