<svg xmlns="http://www.w3.org/2000/svg" width="16" height="16" viewBox="0 0 16 16">
    <g fill="none" fill-rule="evenodd">
        <g fill="#D72F4B">
            <g>
                <g>
                    <path fill-opacity=".3" d="M8.003 0H8C3.582 0 0 3.582 0 8.001c0 4.42 3.581 8.001 8 8.001 4.417 0 7.998-3.58 8-7.998C15.997 3.587 12.42.007 8.004 0z" transform="translate(-703 -678) translate(296 266) translate(407 412)"/>
                    <path d="M8 10.748c.476 0 .862.385.862.861s-.386.862-.862.862-.862-.386-.862-.862.386-.861.862-.861zm0-8.286c.41 0 .742.332.742.742v5.71c0 .41-.332.742-.742.742s-.742-.332-.742-.742v-5.71c0-.41.332-.742.742-.742z" transform="translate(-703 -678) translate(296 266) translate(407 412)"/>
                </g>
            </g>
        </g>
    </g>
</svg>
