<svg width="24" height="24" viewBox="0 0 24 24" fill="none" xmlns="http://www.w3.org/2000/svg">
  <g clip-path="url(#clip0_5496_6585)">
    <path d="M16.5535 10.4781V6.62097L14.5178 8.65669V10.4781C14.5151 11.8362 13.3928 12.9451 11.9999 12.9424C11.5067 12.9451 11.0231 12.8056 10.6071 12.5406L9.16064 14.0138C9.94011 14.6138 10.9258 14.9781 11.9999 14.9781C14.5124 14.9781 16.5535 12.9665 16.5535 10.4781Z" fill="white"/>
    <path d="M20.5981 10.2328H18.9909C18.8731 10.2328 18.7766 10.3292 18.7766 10.4471C18.7766 14.2051 15.7311 17.2507 11.9731 17.2507C10.2856 17.2507 8.74004 16.6346 7.55343 15.6167L6.107 17.0632C7.45156 18.2507 9.12206 19.0066 10.9016 19.2328V21.9649H7.01772C6.6454 21.9649 6.35075 22.348 6.34808 22.8221V23.7864C6.35075 23.9042 6.42575 24.0007 6.50879 24.0007H17.4374C17.5231 24.0007 17.5981 23.9042 17.5981 23.7864V22.8221C17.5981 22.348 17.3034 21.9649 16.9284 21.9649H12.9374V19.2328C17.365 18.7533 20.8124 15.0033 20.8124 10.4471C20.8124 10.3292 20.7159 10.2328 20.5981 10.2328ZM20.949 0.115843L19.7838 -1.00648C19.7434 -1.04539 19.6893 -1.0669 19.6332 -1.0664C19.5772 -1.0659 19.5235 -1.04342 19.4838 -1.0038L16.0284 2.45156C15.2758 0.997093 13.7409 0.000664473 11.9731 0.000664473C9.4579 0.000664473 7.4195 2.01763 7.4195 4.50066V10.5007C7.4195 10.6801 7.43022 10.8569 7.45165 11.031L5.63022 12.8524C5.3406 12.0837 5.19355 11.2686 5.19629 10.4471C5.19093 10.3292 5.0945 10.2328 4.982 10.2328H3.37486C3.257 10.2328 3.16058 10.3292 3.16058 10.4471C3.16058 11.8667 3.4954 13.206 4.08736 14.3953L0.417719 18.065C0.37784 18.1052 0.355469 18.1596 0.355469 18.2163C0.355469 18.273 0.37784 18.3274 0.417719 18.3676L1.56147 19.5114C1.6445 19.5944 1.78111 19.5944 1.86415 19.5114L20.9543 0.4212C21.0374 0.335486 21.0347 0.198879 20.949 0.115843ZM9.45522 9.02745V4.50066C9.45522 3.14531 10.5775 2.03638 11.9731 2.03638C13.2052 2.03638 14.2258 2.90156 14.4454 4.03727L9.45522 9.02745Z" fill="white"/>
  </g>
  <defs>
    <clipPath id="clip0_5496_6585">
      <rect width="24" height="24" fill="white"/>
    </clipPath>
  </defs>
</svg>
