<svg xmlns="http://www.w3.org/2000/svg" width="24" height="24" viewBox="0 0 24 24">
    <defs>
        <filter id="0qs7wk3h9a">
            <feColorMatrix in="SourceGraphic" values="0 0 0 0 0.143265 0 0 0 0 0.696700 0 0 0 0 0.125122 0 0 0 1.000000 0"/>
        </filter>
    </defs>
    <g fill="none" fill-rule="evenodd">
        <g>
            <g transform="translate(-432 -40) translate(432 40)">
                <g>
                    <path fill="#176db7" d="M10 0C4.477 0 0 4.477 0 10s4.477 10 10 10 10-4.477 10-10S15.523 0 10 0zm5.084 6.96l-7.021 7.046-.008.008c-.047.05-.104.095-.166.13-.11.063-.23.092-.348.092-.244 0-.482-.127-.611-.355l-2.127-3.719c-.194-.338-.076-.767.261-.959.338-.193.768-.076.96.262l1.667 2.92 6.397-6.416c.273-.276.719-.276.994-.002.275.275.275.72.002.994z" transform="translate(2 2)"/>
                </g>
            </g>
        </g>
    </g>
</svg>
