<svg xmlns="http://www.w3.org/2000/svg" width="22" height="22" viewBox="0 0 22 22">
    <path fill="#176DB7" fill-rule="evenodd" d="M19.66.333c1.108 0 2.007.89 2.007 2.007v17.32c0 1.108-.89 2.007-2.007 2.007H2.34c-1.108 0-2.007-.89-2.007-2.007V2.34c0-1.108.89-2.007 2.007-2.007h17.32zm-3.027 6.228c-.256-.23-.651-.21-.882.047l-7.005 7.778-2.487-2.764-.074-.07c-.235-.188-.578-.184-.809.024-.256.23-.277.626-.046.883l2.944 3.27.077.072c.162.129.376.166.57.108.113-.03.22-.092.305-.186l7.453-8.279c.231-.256.21-.652-.046-.883z"/>
</svg>
