<svg width="24" height="24" viewBox="0 0 24 24" fill="none" xmlns="http://www.w3.org/2000/svg">
  <path d="M7.0166 16.0731H1.07017C0.834459 16.0731 0.641602 16.266 0.641602 16.5017V17.7874C0.641602 18.0231 0.834459 18.216 1.07017 18.216H5.73089V22.9302C5.73089 23.166 5.92374 23.3588 6.15946 23.3588H7.44517C7.68089 23.3588 7.87374 23.166 7.87374 22.9302V16.9302C7.87374 16.4561 7.49071 16.0731 7.0166 16.0731ZM7.44517 0.644531H6.15946C5.92374 0.644531 5.73089 0.837388 5.73089 1.0731V5.78739H1.07017C0.834459 5.78739 0.641602 5.98025 0.641602 6.21596V7.50167C0.641602 7.73739 0.834459 7.93024 1.07017 7.93024H7.0166C7.49071 7.93024 7.87374 7.54721 7.87374 7.0731V1.0731C7.87374 0.837388 7.68089 0.644531 7.44517 0.644531ZM22.9273 16.0731H16.9809C16.5068 16.0731 16.1237 16.4561 16.1237 16.9302V22.9302C16.1237 23.166 16.3166 23.3588 16.5523 23.3588H17.838C18.0737 23.3588 18.2666 23.166 18.2666 22.9302V18.216H22.9273C23.163 18.216 23.3559 18.0231 23.3559 17.7874V16.5017C23.3559 16.266 23.163 16.0731 22.9273 16.0731ZM22.9273 5.78739H18.2666V1.0731C18.2666 0.837388 18.0737 0.644531 17.838 0.644531H16.5523C16.3166 0.644531 16.1237 0.837388 16.1237 1.0731V7.0731C16.1237 7.54721 16.5068 7.93024 16.9809 7.93024H22.9273C23.163 7.93024 23.3559 7.73739 23.3559 7.50167V6.21596C23.3559 5.98025 23.163 5.78739 22.9273 5.78739Z" fill="white"/>
</svg>
