<svg xmlns="http://www.w3.org/2000/svg" width="22" height="24" viewBox="0 0 22 24">
    <defs>
        <filter id="u6oca410fa">
            <feColorMatrix in="SourceGraphic" values="0 0 0 0 0.988235 0 0 0 0 0.721569 0 0 0 0 0.078431 0 0 0 1.000000 0"/>
        </filter>
    </defs>
    <g fill="none" fill-rule="evenodd">
        <g>
            <g>
                <g filter="url(#u6oca410fa)" transform="translate(-321 -658) translate(296 642) matrix(1 0 0 -1 24 40.833)">
                    <g>
                        <path fill="#000" fill-rule="nonzero" d="M11 0C4.924 0 0 5.027 0 11.23c0 6.202 4.924 11.228 11 11.228s11-5.026 11-11.229C22 5.027 17.076 0 11 0zm-1 4.993c0-.503.447-.91 1-.91.553 0 1 .407 1 .91v8.39c0 .502-.447.909-1 .909-.553 0-1-.407-1-.91v-8.39zm1 12.361c-.553 0-1-.456-1-1.02 0-.566.447-1.021 1-1.021.553 0 1 .455 1 1.02 0 .563-.447 1.021-1 1.021z" transform="translate(1 1.02)"/>
                    </g>
                </g>
            </g>
        </g>
    </g>
</svg>
