<svg xmlns="http://www.w3.org/2000/svg" width="130" height="130" viewBox="0 0 130 130">
    <defs>
        <filter id="yfr66z8kva">
            <feColorMatrix in="SourceGraphic" values="0 0 0 0 0.011765 0 0 0 0 0.011765 0 0 0 0 0.011765 0 0 0 1.000000 0"/>
        </filter>
    </defs>
    <g fill="none" fill-rule="evenodd" opacity=".2">
        <g filter="url(#yfr66z8kva)" transform="translate(-1159 -622)">
            <g>
                <path fill="#000" fill-rule="nonzero" d="M65 0C29.098 0 0 29.098 0 65s29.098 65 65 65 65-29.098 65-65S100.902 0 65 0zm39.495 104.495c-5.129 5.129-11.108 9.166-17.76 11.972-6.881 2.92-14.194 4.392-21.735 4.392-7.541 0-14.854-1.472-21.734-4.38-6.653-2.818-12.62-6.842-17.761-11.971-5.129-5.13-9.166-11.109-11.972-17.76C10.613 79.853 9.141 72.54 9.141 65s1.472-14.854 4.38-21.734c2.818-6.653 6.842-12.62 11.971-17.761 5.13-5.129 11.109-9.166 17.76-11.972C50.147 10.613 57.46 9.141 65 9.141s14.854 1.472 21.734 4.38c6.653 2.818 12.62 6.842 17.761 11.971 5.129 5.13 9.166 11.109 11.972 17.76 2.92 6.894 4.392 14.207 4.392 21.748s-1.472 14.854-4.38 21.734c-2.818 6.653-6.842 12.632-11.984 17.761zm-23.207-7.312c-2.526 0-4.57-2.044-4.57-4.57 0-6.463-5.256-11.718-11.718-11.718S53.282 86.15 53.282 92.612c0 2.527-2.044 4.57-4.57 4.57-2.526 0-4.57-2.043-4.57-4.57 0-11.502 9.356-20.858 20.858-20.858s20.858 9.356 20.858 20.858c0 2.527-2.044 4.57-4.57 4.57zM24.654 48.547c0 4.207 3.41 7.617 7.617 7.617s7.618-3.41 7.618-7.617-3.41-7.617-7.618-7.617c-4.206 0-7.617 3.41-7.617 7.617zm65.42 0c0 4.207 3.41 7.617 7.616 7.617 4.207 0 7.618-3.41 7.618-7.617s-3.41-7.617-7.618-7.617c-4.206 0-7.617 3.41-7.617 7.617z" transform="translate(1159 622)"/>
            </g>
        </g>
    </g>
</svg>
