<svg width="24" height="24" viewBox="0 0 24 13" fill="none" xmlns="http://www.w3.org/2000/svg">
<path d="M-0.0925033 6.25749L-0.0906092 10.2899C-0.0906086 10.7823 0.100688 11.2502 0.449191 11.5987C0.797694 11.9472 1.26363 12.1404 1.75797 12.1385L6.0991 12.1423C6.59155 12.1423 7.06127 11.9491 7.40977 11.6006C7.76017 11.2502 7.95147 10.7861 7.95147 10.2899L7.95336 6.89388C9.24074 6.37971 10.6147 6.11676 12.0009 6.11922C13.3949 6.11543 14.7586 6.37681 16.0504 6.8882L16.0485 10.2842C16.0485 10.7767 16.2398 11.2445 16.5883 11.593C16.7595 11.7655 16.9635 11.9021 17.1882 11.9948C17.413 12.0875 17.654 12.1344 17.8971 12.1328L22.2401 12.1385C22.7325 12.1385 23.2022 11.9453 23.5507 11.5968C23.9011 11.2464 24.0924 10.7823 24.0924 10.2861L24.0924 6.25559C24.0924 5.41464 23.7534 4.59452 23.1587 3.99979C23.0356 3.87668 22.9068 3.76683 22.7647 3.66644C19.8441 1.57164 16.0201 0.418171 12.0028 0.416277C7.98367 0.420065 4.1615 1.57543 1.23521 3.66834C0.403734 4.26117 -0.0906098 5.23281 -0.0925033 6.25749ZM2.3527 5.2366C4.9551 3.37287 8.38331 2.3463 12.0009 2.3463C15.6185 2.3463 19.0448 3.37097 21.6472 5.2347C21.9749 5.46767 22.1681 5.85027 22.17 6.25748L22.17 10.216L17.9709 10.2179L17.9747 5.67602L17.9747 5.64192L17.4141 5.38433C15.7175 4.59995 13.8707 4.19385 12.0017 4.19418C10.1326 4.1945 8.28591 4.60125 6.58965 5.38623L6.02902 5.64382L6.03091 10.2179L1.83184 10.2198L1.83184 6.26127C1.83184 5.85216 2.02503 5.46957 2.3527 5.2366Z" fill="#fff"/>
</svg>
