<svg xmlns="http://www.w3.org/2000/svg" width="18" height="18" viewBox="0 0 18 18">
    <defs>
        <filter id="vu8lmh7g3a">
            <feColorMatrix in="SourceGraphic" values="0 0 0 0 0.090196 0 0 0 0 0.427451 0 0 0 0 0.717647 0 0 0 1.000000 0"/>
        </filter>
    </defs>
    <g fill="none" fill-rule="evenodd">
        <g>
            <g>
                <g>
                    <g transform="translate(-714 -4384) translate(242 3404) translate(287) translate(185 980)">
                        <path fill="#176db7" d="M9 0C4.029 0 0 4.029 0 9s4.029 9 9 9 9-4.029 9-9-4.029-9-9-9zm-.114 14.284c-.42 0-.761-.341-.761-.761s.34-.761.76-.761.762.34.762.76c0 .421-.341.762-.761.762zm3.266-7.411c-.044.814-.294 1.456-1.542 2.704-.633.632-1.032 1.107-1.072 1.524-.032.327-.308.57-.63.57-.02 0-.042 0-.063-.003-.348-.033-.6-.344-.567-.692.086-.877.729-1.586 1.437-2.294 1.134-1.134 1.154-1.494 1.173-1.876.023-.444-.14-.875-.464-1.214-.368-.387-.888-.609-1.428-.609h-.003c-1.039.002-1.886.85-1.886 1.89 0 .35-.283.633-.633.633-.35 0-.633-.283-.633-.633 0-.842.327-1.633.921-2.229.594-.596 1.385-.924 2.227-.926.888-.002 1.746.364 2.352 1.002.566.592.853 1.357.81 2.153z"/>
                    </g>
                </g>
            </g>
        </g>
    </g>
</svg>
