<svg xmlns="http://www.w3.org/2000/svg" width="18" height="18" viewBox="0 0 18 18">
    <defs>
        <filter id="ycex3mc9aa">
            <feColorMatrix in="SourceGraphic" values="0 0 0 0 0.011765 0 0 0 0 0.011765 0 0 0 0 0.011765 0 0 0 1.000000 0"/>
        </filter>
    </defs>
    <g fill="none" fill-rule="evenodd" opacity=".3">
        <g>
            <g>
                <g filter="url(#ycex3mc9aa)" transform="translate(-714 -2992) translate(529 2012) translate(185 980)">
                    <path fill="#030303" d="M9 0C4.029 0 0 4.029 0 9s4.029 9 9 9 9-4.029 9-9-4.029-9-9-9zm5.469 14.469c-.71.71-1.539 1.269-2.46 1.657-.952.404-1.965.608-3.009.608-1.044 0-2.057-.204-3.01-.606-.92-.39-1.747-.948-2.459-1.658-.71-.71-1.269-1.538-1.657-2.459-.404-.954-.608-1.967-.608-3.011s.204-2.057.606-3.01c.39-.92.948-1.747 1.658-2.459.71-.71 1.538-1.269 2.459-1.657.954-.404 1.967-.608 3.011-.608s2.057.204 3.01.606c.92.39 1.747.948 2.459 1.658.71.71 1.269 1.538 1.657 2.459.404.954.608 1.967.608 3.011s-.204 2.057-.606 3.01c-.39.92-.948 1.748-1.66 2.459zm-5.56-2.799c-.022 0-.043-.002-.064-.003-.348-.034-.6-.345-.567-.693.086-.877.729-1.586 1.437-2.294 1.134-1.134 1.154-1.494 1.173-1.876.023-.444-.14-.875-.464-1.214-.368-.387-.888-.608-1.428-.608h-.003c-1.039.001-1.886.849-1.886 1.89 0 .35-.283.632-.633.632-.35 0-.633-.283-.633-.633 0-.842.327-1.633.921-2.229.594-.596 1.385-.924 2.227-.926.888-.002 1.746.364 2.352 1.002.565.594.853 1.359.81 2.153-.043.814-.293 1.456-1.54 2.704-.634.633-1.033 1.107-1.073 1.524-.032.327-.308.571-.63.571zm-.784 1.851c0 .272.145.523.38.66.236.135.526.135.761 0 .236-.137.38-.388.38-.66 0-.42-.34-.761-.76-.761s-.761.34-.761.761z"/>
                </g>
            </g>
        </g>
    </g>
</svg>
